<svg id="Capa_1" enable-background="new 0 0 511.116 511.116" height="512" viewBox="0 0 511.116 511.116" width="512" xmlns="http://www.w3.org/2000/svg"><g><path d="m432.889 266.05h1.111v-83.118l77.116-149.89-13.09-6.94c-40.623-22.637-96.023-5.448-116.695 36.21 0-.001-13.461 25.758-13.461 25.758l-39.475-51.42h-7.395c-22.89-.102-43.132 13.163-52.449 34.032-10.017-17.951-26.414-31.494-46.302-37.908l-11.366-3.665-118.401 198.441h-92.482v228h68.366l109 39.5h126.265c52.519 0 96.504-37.212 106.99-86.653 27.649-10.399 47.379-37.107 47.379-68.347v-22.484c0-20.888-9.838-39.511-25.111-51.516zm-24.97-189.845c11.136-22.231 38.036-34.558 62.069-28.799l-53.5 103.99-28.477-37.093zm-139.729 75.044c3.713-6.484 6.478-13.371 8.281-20.428l32.529 49.083v12.146h-65.083zm114.81 234.432c0 43.765-35.604 79.369-79.369 79.369h-120.997l-109-39.5h-43.634v-168h79.518l114.201-191.403c23.632 13.434 32.53 46.388 18.601 69.912l-51.158 85.991h147.838v-51.186l-40.855-61.648c-10.635-15.276-1.813-37.598 16.086-41.751l89.769 116.929v68.69c-5.767-1.945-74.712-.719-82.397-1.034-28.454 0-51.603 23.15-51.603 51.604v28.467c-9.405 12.41-11.383 31.011-6.059 45.801-40.881-19.149-79.272-17.133-122.941-16.872v30c49.857-.332 86.359-2.869 130.874 25h71.126v-30h-26c-14.337 0-26-11.663-26-26 0-9.925 8.075-18 18-18h52.396c11.912 0 21.604 9.691 21.604 21.604zm45-45.631c0 13.022-5.826 24.701-15 32.593v-8.99c0-28.454-23.149-51.604-51.604-51.604-6.324.286-56.372-.799-61.396.858v-9.255c0-11.912 9.691-21.604 21.604-21.604h70.881c19.583 0 35.516 15.933 35.516 35.516v22.486z"/></g></svg>