<svg width="0" height="0" class="hidden">
  <symbol xmlns="http://www.w3.org/2000/svg" viewBox="0 0 48 48" id="computer">
    <path clip-rule="evenodd" d="M43 35H29.195c.595 3.301 2.573 5.572 4.401 7H36a1 1 0 110 2H12a1 1 0 110-2h2.403c1.827-1.428 3.807-3.699 4.401-7H5a4 4 0 01-4-4V8a4 4 0 014-4h38a4 4 0 014 4v23a4 4 0 01-4 4zm-25.603 7h13.205c-1.595-1.682-3.015-3.976-3.459-7h-6.287c-.444 3.024-1.864 5.318-3.459 7zM45 8a2 2 0 00-2-2H5a2 2 0 00-2 2v19h42V8zm0 21H3v2a2 2 0 002 2h38a2 2 0 002-2v-2zm-21 3a1 1 0 110-2 1 1 0 110 2z" fill-rule="evenodd"></path>
  </symbol>
  <symbol xmlns="http://www.w3.org/2000/svg" viewBox="0 0 512 512" id="easy">
    <path d="M256 392c-74.991 0-136-61.009-136-136s61.009-136 136-136 136 61.009 136 136-61.009 136-136 136zm0-242c-58.449 0-106 47.551-106 106s47.551 106 106 106 106-47.551 106-106-47.551-106-106-106z"></path>
    <path d="M303.91 512h-95.82l-14.466-38.736a224.579 224.579 0 01-47.135-19.534l-37.631 17.167-67.755-67.755 17.167-37.631a224.6 224.6 0 01-19.534-47.135L0 303.91v-95.82l38.736-14.466a224.579 224.579 0 0119.534-47.135l-17.167-37.631 67.755-67.755 37.631 17.167a224.557 224.557 0 0147.135-19.534L208.09 0h95.82l14.466 38.736a224.579 224.579 0 0147.135 19.534l37.631-17.167 67.755 67.755-17.167 37.631a224.557 224.557 0 0119.534 47.135L512 208.09v95.82l-38.736 14.466a224.6 224.6 0 01-19.534 47.135l17.167 37.631-67.755 67.755-37.631-17.167a224.557 224.557 0 01-47.135 19.534zm-75-30h54.18l12.652-33.879 7.671-1.905a194.63 194.63 0 0053.549-22.192l6.772-4.079 32.917 15.017 38.311-38.311-15.017-32.917 4.079-6.772a194.642 194.642 0 0022.192-53.549l1.905-7.671L482 283.09v-54.18l-33.879-12.652-1.905-7.671a194.63 194.63 0 00-22.192-53.549l-4.079-6.772 15.017-32.917-38.311-38.311-32.917 15.017-6.772-4.079a194.617 194.617 0 00-53.549-22.192l-7.671-1.905L283.09 30h-54.18l-12.652 33.879-7.671 1.905a194.63 194.63 0 00-53.549 22.192l-6.772 4.079-32.917-15.017-38.311 38.311 15.017 32.917-4.079 6.772a194.617 194.617 0 00-22.192 53.549l-1.905 7.671L30 228.91v54.18l33.879 12.652 1.905 7.671a194.655 194.655 0 0022.192 53.549l4.079 6.772-15.017 32.917 38.311 38.311 32.917-15.017 6.772 4.079a194.617 194.617 0 0053.549 22.192l7.671 1.905z"></path>
    <path d="M245.394 309.033L192.36 256l21.213-21.213 31.821 31.819 53.033-53.032 21.213 21.213z"></path>
  </symbol>
  <symbol xmlns="http://www.w3.org/2000/svg" viewBox="0 0 512 512" id="growth">
    <path d="M512 482h-30V180h-91v302h-30V300h-90v182h-30V240h-90v242h-30V330H30v152H0v30h512z"></path>
    <path d="M512 120V0H391v30h69.789L316 173.789l-120-120L4.395 244.395l21.21 21.21L196 96.211l120 120 166-165V120z"></path>
  </symbol>
  <symbol xmlns="http://www.w3.org/2000/svg" viewBox="0 0 24 24" id="line">
    <path d="M8.7 14.6H6.8c-.3 0-.5-.2-.5-.5V9.7c0-.3.2-.5.5-.5s.5.2.5.5v3.9h1.4c.3 0 .5.2.5.5 0 .2-.3.5-.5.5zm2.1-.5c0 .3-.2.5-.5.5s-.5-.2-.5-.5V9.7c0-.3.2-.5.5-.5s.5.2.5.5v4.4zm3.2.3s-.1.1-.2.1h-.2c-.1 0-.2 0-.2-.1l-.2-.2-.9-2.1v2c0 .3-.2.5-.5.5s-.5-.2-.5-.5V9.4s0-.1.1-.1c0 0 .1-.1.2-.1h.3s.1 0 .1.1h.1s.1.1.1.2l.9 2.1v-2c0-.3.2-.5.5-.5s.5.2.5.5v4.5c0 .2 0 .2-.1.3.1 0 0 0 0 0zm3.2-3c.3 0 .5.2.5.5s-.2.5-.5.5h-1.4v1.2h1.4c.3 0 .5.2.5.5s-.2.5-.5.5h-1.8c-.3 0-.5-.2-.5-.5V9.7c0-.3.2-.5.5-.5h1.8c.3 0 .5.2.5.5s-.2.5-.5.5h-1.4v1.2h1.4z"></path>
    <path d="M20.4.5H3.6C1.9.5.5 1.9.5 3.6v16.8c0 1.7 1.4 3.1 3.1 3.1h16.8c1.7 0 3.1-1.4 3.1-3.1V3.6c0-1.7-1.4-3.1-3.1-3.1zM17.8 18l-5.5 3.8c-.1.1-.2.1-.3.1-.1 0-.2 0-.2-.1-.2-.1-.3-.2-.3-.4v-1.7c-4.9-.2-8.8-3.6-8.8-7.8C2.7 7.5 6.9 4 12 4s9.3 3.5 9.3 7.8c0 2.4-1.3 4.7-3.5 6.2z"></path>
  </symbol>
  <symbol xmlns="http://www.w3.org/2000/svg" viewBox="0 0 384.97 384.97" id="menu">
    <path d="M12.03 120.303h360.909c6.641 0 12.03-5.39 12.03-12.03 0-6.641-5.39-12.03-12.03-12.03H12.03c-6.641 0-12.03 5.39-12.03 12.03s5.39 12.03 12.03 12.03zm360.909 60.152H12.03c-6.641 0-12.03 5.39-12.03 12.03s5.39 12.03 12.03 12.03h360.909c6.641 0 12.03-5.39 12.03-12.03s-5.389-12.03-12.03-12.03zm0 84.212H132.333c-6.641 0-12.03 5.39-12.03 12.03 0 6.641 5.39 12.03 12.03 12.03h240.606c6.641 0 12.03-5.39 12.03-12.03.001-6.641-5.389-12.03-12.03-12.03z"></path>
  </symbol>
  <symbol xmlns="http://www.w3.org/2000/svg" viewBox="0 0 46.195 46.195" id="quote">
    <path d="M35.765 8.264c-5.898 0-10.555 4.782-10.555 10.68s4.844 10.68 10.742 10.68c.059 0 .148-.008.207-.009-2.332 1.857-5.261 2.976-8.467 2.976-1.475 0-2.662 1.196-2.662 2.67s.949 2.67 2.424 2.67c10.469-.001 18.741-8.518 18.741-18.987v-.007c0-5.895-4.534-10.673-10.43-10.673zm-25.015 0C4.852 8.264.187 13.046.187 18.944s4.84 10.68 10.739 10.68c.059 0 .146-.008.205-.009-2.332 1.857-5.262 2.976-8.468 2.976-1.475 0-2.663 1.196-2.663 2.67s.964 2.67 2.439 2.67c10.469-.001 18.756-8.518 18.756-18.987v-.007c0-5.895-4.549-10.673-10.445-10.673z" fill="#010002"></path>
  </symbol>
  <symbol xmlns="http://www.w3.org/2000/svg" viewBox="0 0 500 500" id="search">
    <g fill="none" stroke="#130B7A" stroke-linecap="round" stroke-linejoin="round" stroke-miterlimit="2.613" stroke-width="10">
      <path d="M231.492 81.061c-41.432-41.396-109.002-41.396-150.41 0-41.443 41.443-41.443 109.014 0 150.434 41.408 41.419 108.978 41.419 150.41 0 41.432-41.421 41.432-108.991 0-150.434m3.094 153.539l49.729 49.717m155.567 106.691c13.491 13.526 13.491 35.397 0 48.888m0 0c-13.502 13.455-35.361 13.455-48.863 0m0 0L284.315 333.17m0 0c-13.49-13.49-13.49-35.362 0-48.853m0 0c13.491-13.49 35.362-13.49 48.864 0m.001 0l106.702 106.691"></path>
      <path d="M150.68 229.526c20.165 1.244 40.755-5.809 56.107-21.125 28.38-28.403 28.38-74.683.013-103.063-9.081-9.033-19.951-15.209-31.51-18.493"></path>
    </g>
  </symbol>
  <symbol xmlns="http://www.w3.org/2000/svg" viewBox="0 0 512 512" id="setting">
    <path d="M141.93 319.21c-2.71 0-5.29-1.59-6.43-4.24-6.29-14.63-9.49-30.21-9.49-46.32 0-64.83 52.74-117.57 117.57-117.57 3.87 0 7 3.13 7 7s-3.13 7-7 7c-57.11 0-103.57 46.46-103.57 103.57 0 14.19 2.81 27.91 8.35 40.79a7.003 7.003 0 01-3.66 9.2c-.91.38-1.85.57-2.77.57zm101.65 67.01c-16.09 0-31.67-3.19-46.3-9.47a7.015 7.015 0 01-4.11-5.11c-.44-2.28.28-4.63 1.92-6.27l145.21-145.2a6.994 6.994 0 016.27-1.92c2.28.44 4.19 1.98 5.11 4.11 6.29 14.64 9.47 30.21 9.47 46.29 0 64.83-52.74 117.57-117.57 117.57zm-30.88-18.67c9.93 3.1 20.28 4.67 30.88 4.67 57.11 0 103.57-46.46 103.57-103.57 0-10.59-1.57-20.94-4.67-30.87L212.7 367.55z"></path>
    <path d="M103.25 357.88c-2.4 0-4.74-1.24-6.04-3.46a168.12 168.12 0 01-17.76-42.8l-29.78-3.44c-3.53-.41-6.2-3.4-6.2-6.95v-59.02c0-3.55 2.66-6.54 6.19-6.95l28.27-3.28c3.81-17.27 10.25-33.7 19.21-48.98l-18.63-23.52a6.994 6.994 0 01.54-9.3l41.73-41.73a7.016 7.016 0 019.3-.54l22.31 17.68a167.886 167.886 0 0148.22-21.08l3.44-29.78c.41-3.53 3.4-6.2 6.95-6.2h59.02c3.55 0 6.54 2.66 6.95 6.19l3.28 28.27c17.3 3.82 33.79 10.29 49.08 19.28 3.33 1.96 4.45 6.25 2.49 9.58s-6.25 4.45-9.58 2.49c-15.38-9.05-32.09-15.31-49.65-18.63a6.995 6.995 0 01-5.65-6.07l-3.15-27.12h-46.54l-3.28 28.42a7.004 7.004 0 01-5.39 6.02c-18.86 4.33-36.56 12.08-52.6 23.04a6.995 6.995 0 01-8.29-.29l-21.4-16.96-32.91 32.91 17.78 22.44a7 7 0 01.45 8.06c-10.3 16.44-17.34 34.43-20.93 53.46a7.017 7.017 0 01-6.07 5.66l-27.12 3.15v46.54l28.42 3.28c2.94.34 5.36 2.5 6.02 5.39 3.52 15.35 9.37 30.04 17.37 43.67 1.96 3.33.84 7.62-2.49 9.58-1.13.67-2.35.99-3.56.99zm172.9 110.88h-59.02c-3.55 0-6.54-2.66-6.95-6.19l-3.28-28.27a168.33 168.33 0 01-49.07-19.27 7.02 7.02 0 01-3.4-5.15c-.27-2.15.46-4.3 1.99-5.84l38.66-38.67L378.97 181.5a6.99 6.99 0 015.84-1.99 7.02 7.02 0 015.15 3.4 168.835 168.835 0 0117.75 42.79l29.78 3.44c3.53.41 6.2 3.4 6.2 6.95v59.02c0 3.55-2.66 6.54-6.19 6.95l-28.27 3.28a168.157 168.157 0 01-19.21 48.98l18.63 23.51a6.994 6.994 0 01-.54 9.3l-41.73 41.73a7.016 7.016 0 01-9.3.54l-22.31-17.68c-16.33 10.44-34.15 17.93-53.05 22.26-3.77.87-7.52-1.49-8.39-5.26-.87-3.77 1.49-7.52 5.26-8.39 18.86-4.33 36.56-12.08 52.6-23.04a6.995 6.995 0 018.29.29l21.4 16.96 32.91-32.91-17.78-22.44a7 7 0 01-.45-8.06c10.3-16.44 17.34-34.43 20.93-53.46.57-3.01 3.03-5.3 6.07-5.66l27.12-3.15v-46.54l-28.42-3.28a7.004 7.004 0 01-6.02-5.39A153.819 153.819 0 00382.26 198L172.92 407.34c13.12 6.71 27.09 11.48 41.65 14.23 3.01.57 5.3 3.03 5.65 6.07l3.15 27.12h46.56c.65-3.61 4-6.13 7.69-5.71 3.84.44 6.59 3.92 6.15 7.76l-.67 5.75c-.41 3.53-3.4 6.2-6.95 6.2zm-73.59-217.2"></path>
    <path d="M83.95 498.27c-9.78 0-19.25-1.97-28.15-5.86a7.014 7.014 0 01-3.62-9.22 7.001 7.001 0 019.22-3.61c7.12 3.11 14.71 4.69 22.55 4.69 31.13 0 56.45-25.32 56.45-56.45 0-1.49-.05-2.83-.16-4.11-.17-2.05.57-4.07 2.03-5.52l52.81-52.81 193.76-193.75a7.001 7.001 0 014.95-2.05h49.16l41.54-41.55.01-46.77-53.42 53.42a7.001 7.001 0 01-9.9 0l-43.6-43.62a7.007 7.007 0 010-9.9L431 27.74l-46.78.01-41.53 41.54-.01 49.17c0 1.86-.74 3.64-2.05 4.95L226.66 237.36a7.007 7.007 0 01-9.9 0 7.007 7.007 0 010-9.9l111.91-111.92.01-49.17c0-1.86.74-3.64 2.05-4.95l45.63-45.64a7.001 7.001 0 014.95-2.05l64.54-.01c1.86 0 3.64.74 4.95 2.05l1.02 1.02a7.007 7.007 0 010 9.9L392.41 86.1l33.71 33.71 59.41-59.42a7.001 7.001 0 014.95-2.05h.02c1.86 0 3.65.75 4.96 2.08l1.01 1.02a6.98 6.98 0 012.02 4.92l-.01 64.54c0 1.86-.74 3.64-2.05 4.95l-45.64 45.65a7.001 7.001 0 01-4.95 2.05h-49.16L154.37 425.88c.02.63.03 1.27.03 1.94 0 38.85-31.61 70.45-70.45 70.45zm-43.93-19.53a7.043 7.043 0 01-2.68-.54c-.42-.17-.83-.39-1.2-.64-.39-.25-.75-.55-1.07-.87-.32-.32-.61-.68-.87-1.06-.25-.38-.47-.79-.64-1.21-.18-.42-.31-.86-.4-1.31-.09-.45-.14-.91-.14-1.37a7.043 7.043 0 01.54-2.68c.17-.42.39-.83.64-1.2.26-.39.55-.75.87-1.07.32-.32.68-.61 1.07-.87.37-.25.78-.47 1.2-.64.43-.18.87-.31 1.31-.4.91-.18 1.84-.18 2.74 0 .45.09.89.22 1.31.4.42.17.83.39 1.21.64.38.26.74.55 1.06.87.32.32.62.68.87 1.07.25.37.47.78.64 1.2.18.43.31.87.4 1.31.1.46.14.92.14 1.37 0 .46-.04.92-.14 1.37-.09.45-.22.89-.4 1.31a6.818 6.818 0 01-1.51 2.27 6.818 6.818 0 01-2.27 1.51c-.42.18-.86.31-1.31.4-.45.09-.91.14-1.37.14z"></path>
    <path d="M26.26 461.26c-2.65 0-5.19-1.51-6.37-4.08-4.24-9.24-6.39-19.12-6.39-29.36 0-38.85 31.6-70.45 70.45-70.45.95 0 1.9.02 2.85.06l94.35-94.35a7.007 7.007 0 019.9 0 7.007 7.007 0 010 9.9l-96.59 96.59a7.015 7.015 0 01-5.59 2.02c-1.61-.15-3.26-.22-4.92-.22-31.13 0-56.45 25.32-56.45 56.45 0 8.21 1.72 16.12 5.12 23.52 1.61 3.51.07 7.67-3.44 9.28-.95.43-1.94.64-2.92.64z"></path>
    <path d="M83.95 462.12c-1.67 0-3.32-.12-4.92-.36-14.94-2.12-26.9-14.07-29.02-29.07-.23-1.54-.35-3.2-.35-4.87 0-18.91 15.39-34.3 34.3-34.3s34.3 15.39 34.3 34.3-15.4 34.3-34.31 34.3zm0-54.6c-11.19 0-20.3 9.11-20.3 20.3 0 .97.07 1.93.21 2.85 1.26 8.92 8.33 15.98 17.19 17.24.97.15 1.93.21 2.9.21 11.19 0 20.3-9.11 20.3-20.3s-9.11-20.3-20.3-20.3z"></path>
    <path d="M83.95 462.12c-1.67 0-3.32-.12-4.92-.36-14.94-2.12-26.9-14.07-29.02-29.07-.23-1.54-.35-3.2-.35-4.87 0-18.91 15.39-34.3 34.3-34.3s34.3 15.39 34.3 34.3-15.4 34.3-34.31 34.3zm0-54.6c-11.19 0-20.3 9.11-20.3 20.3 0 .97.07 1.93.21 2.85 1.26 8.92 8.33 15.98 17.19 17.24.97.15 1.93.21 2.9.21 11.19 0 20.3-9.11 20.3-20.3s-9.11-20.3-20.3-20.3z"></path>
  </symbol>
  <symbol xmlns="http://www.w3.org/2000/svg" viewBox="0 0 511.116 511.116" id="snap">
    <path d="M432.889 266.05H434v-83.118l77.116-149.89-13.09-6.94c-40.623-22.637-96.023-5.448-116.695 36.21L367.87 88.07l-39.475-51.42H321c-22.89-.102-43.132 13.163-52.449 34.032-10.017-17.951-26.414-31.494-46.302-37.908l-11.366-3.665L92.482 227.55H0v228h68.366l109 39.5h126.265c52.519 0 96.504-37.212 106.99-86.653C438.27 397.998 458 371.29 458 340.05v-22.484c0-20.888-9.838-39.511-25.111-51.516zm-24.97-189.845c11.136-22.231 38.036-34.558 62.069-28.799l-53.5 103.99-28.477-37.093zM268.19 151.249a81.946 81.946 0 008.281-20.428L309 179.904v12.146h-65.083zM383 385.681c0 43.765-35.604 79.369-79.369 79.369H182.634l-109-39.5H30v-168h79.518L223.719 66.147c23.632 13.434 32.53 46.388 18.601 69.912l-51.158 85.991H339v-51.186l-40.855-61.648c-10.635-15.276-1.813-37.598 16.086-41.751L404 184.394v68.69c-5.767-1.945-74.712-.719-82.397-1.034-28.454 0-51.603 23.15-51.603 51.604v28.467c-9.405 12.41-11.383 31.011-6.059 45.801C223.06 358.773 184.669 360.789 141 361.05v30c49.857-.332 86.359-2.869 130.874 25H343v-30h-26c-14.337 0-26-11.663-26-26 0-9.925 8.075-18 18-18h52.396c11.912 0 21.604 9.691 21.604 21.604zm45-45.631c0 13.022-5.826 24.701-15 32.593v-8.99c0-28.454-23.149-51.604-51.604-51.604-6.324.286-56.372-.799-61.396.858v-9.255c0-11.912 9.691-21.604 21.604-21.604h70.881c19.583 0 35.516 15.933 35.516 35.516v22.486z"></path>
  </symbol>
  <symbol xmlns="http://www.w3.org/2000/svg" viewBox="0 0 18 15" id="tick">
    <title></title>
    <path d="M6 10.7L1.8 6.5.4 7.9 6 13.5l12-12L16.6.1 6 10.7z" fill-rule="evenodd"></path>
  </symbol>
  <symbol xmlns="http://www.w3.org/2000/svg" viewBox="0 0 96.98 96.98" id="wordpress">
    <path d="M49.16 51.833L37.694 85.152a38.323 38.323 0 0010.798 1.558c4.449 0 8.719-.77 12.689-2.167a3.393 3.393 0 01-.271-.527L49.16 51.833zm-38.888-3.345c0 15.129 8.792 28.202 21.541 34.396l-18.23-49.949a38.082 38.082 0 00-3.311 15.553z"></path>
    <path d="M74.289 46.56c0-4.723-1.695-7.993-3.149-10.541-1.938-3.148-3.754-5.813-3.754-8.962 0-3.513 2.664-6.783 6.418-6.783.17 0 .33.021.496.029-6.798-6.227-15.856-10.031-25.807-10.031-13.354 0-25.101 6.85-31.932 17.227a84.82 84.82 0 002.459.046c3.998 0 10.187-.485 10.187-.485 2.062-.124 2.302 2.903.245 3.146 0 0-2.071.243-4.374.365l13.915 41.397 8.363-25.085L41.4 30.57a70.58 70.58 0 01-4.007-.365c-2.058-.12-1.818-3.268.241-3.146 0 0 6.313.485 10.066.485 3.997 0 10.188-.485 10.188-.485 2.062-.122 2.303 2.903.243 3.146 0 0-2.073.243-4.374.365L67.57 71.653l3.812-12.738c1.651-5.286 2.907-9.084 2.907-12.355zm7.736-16.407c.164 1.216.258 2.525.258 3.93 0 3.878-.723 8.238-2.905 13.689L67.703 81.523c11.361-6.626 19.006-18.936 19.006-33.033a37.995 37.995 0 00-4.684-18.337z"></path>
    <path d="M48.49 0C21.71 0 .001 21.71.001 48.49S21.71 96.98 48.49 96.98s48.489-21.71 48.489-48.49S75.27 0 48.49 0zm.002 90.997c-23.44 0-42.507-19.067-42.507-42.509 0-23.438 19.066-42.505 42.507-42.505 23.437 0 42.503 19.068 42.503 42.505.001 23.44-19.067 42.509-42.503 42.509z"></path>
  </symbol>
  <symbol xmlns="http://www.w3.org/2000/svg" viewBox="0 0 24 24" id="chevron">
    <path d="M12.769 1.359a1.037 1.037 0 00-1.538 0l-5 6A1 1 0 007 9h10a1 1 0 00.769-1.641zM9.135 7L12 3.563 14.865 7zM17 15H7a1 1 0 00-.769 1.641l5 6a1 1 0 001.538 0l5-6A1 1 0 0017 15zm-5 5.438L9.135 17h5.73z"></path>
  </symbol>
  <symbol xmlns="http://www.w3.org/2000/svg" viewBox="0 0 480 480" id="clock">
    <path d="M240 0C107.452 0 0 107.452 0 240s107.452 240 240 240 240-107.452 240-240C479.85 107.514 372.486.15 240 0zm0 464C116.288 464 16 363.712 16 240S116.288 16 240 16s224 100.288 224 224c-.141 123.653-100.347 223.859-224 224z"></path>
    <path d="M240 40C129.543 40 40 129.543 40 240s89.543 200 200 200 200-89.543 200-200c-.123-110.406-89.594-199.877-200-200zm0 384c-101.62 0-184-82.38-184-184S138.38 56 240 56s184 82.38 184 184c-.115 101.573-82.427 183.885-184 184z"></path>
    <path d="M232 80h16v16h-16zm0 304h16v16h-16zm-78.939-278.558l13.847-7.997 7.998 13.847-13.847 7.998zm151.964 263.222l13.847-7.998 7.998 13.848-13.847 7.997zM97.429 166.928l8-13.856 13.856 8-8 13.856zm263.244 152.027l8-13.856 13.856 8-8 13.856zM80 232h16v16H80zm304 0h16v16h-16zM97.433 313.083l13.858-7.999 7.998 13.858-13.857 7.998zm263.238-152.011l13.856-8 8 13.856-13.856 8zM153.02 374.543l7.998-13.847 13.848 7.998-7.998 13.847zm152.042-263.236l7.997-13.847 13.848 7.997-7.998 13.848zM232 112v123.472l-76.12 45.672 8.24 13.712 80-48A7.998 7.998 0 00248 240V112h-16z"></path>
  </symbol>
</svg>